<svg width="150" height="78" viewBox="0 0 150 78" fill="none" xmlns="http://www.w3.org/2000/svg">
<path d="M57.5676 58.1989C56.5639 58.1989 55.669 58.0142 54.883 57.6449C54.1017 57.2756 53.4815 56.7666 53.0222 56.1179C52.5629 55.4692 52.3238 54.7259 52.3049 53.8878H55.2878C55.321 54.4512 55.5577 54.9081 55.998 55.2585C56.4384 55.6089 56.9616 55.7841 57.5676 55.7841C58.0506 55.7841 58.4767 55.6776 58.8461 55.4645C59.2201 55.2467 59.5113 54.946 59.7196 54.5625C59.9327 54.1742 60.0392 53.7292 60.0392 53.2273C60.0392 52.7159 59.9303 52.2661 59.7125 51.8778C59.4995 51.4896 59.2035 51.1866 58.8248 50.9688C58.446 50.7509 58.0127 50.6397 57.525 50.6349C57.0989 50.6349 56.6846 50.7225 56.2821 50.8977C55.8844 51.0729 55.5743 51.312 55.3517 51.6151L52.6174 51.125L53.3063 43.4545H62.1983V45.9688H55.8418L55.4654 49.6122H55.5506C55.8063 49.2524 56.1922 48.9541 56.7083 48.7173C57.2244 48.4806 57.802 48.3622 58.4412 48.3622C59.3172 48.3622 60.0984 48.5682 60.785 48.9801C61.4715 49.392 62.0137 49.9579 62.4114 50.6776C62.8091 51.3925 63.0056 52.2164 63.0009 53.1491C63.0056 54.1293 62.7784 55.0005 62.3191 55.7628C61.8645 56.5204 61.2277 57.117 60.4086 57.5526C59.5942 57.9834 58.6472 58.1989 57.5676 58.1989ZM70.8489 58.3196C69.6273 58.3149 68.5762 58.0142 67.6955 57.4176C66.8195 56.821 66.1448 55.9569 65.6713 54.8253C65.2026 53.6937 64.9706 52.3324 64.9753 50.7415C64.9753 49.1553 65.2097 47.8035 65.6784 46.6861C66.1519 45.5687 66.8266 44.7187 67.7026 44.1364C68.5833 43.5492 69.632 43.2557 70.8489 43.2557C72.0658 43.2557 73.1122 43.5492 73.9881 44.1364C74.8688 44.7235 75.5459 45.5758 76.0194 46.6932C76.4928 47.8059 76.7272 49.1553 76.7225 50.7415C76.7225 52.3371 76.4857 53.7008 76.0123 54.8324C75.5435 55.964 74.8712 56.8281 73.9952 57.4247C73.1193 58.0213 72.0705 58.3196 70.8489 58.3196ZM70.8489 55.7699C71.6822 55.7699 72.3475 55.3509 72.8446 54.5128C73.3418 53.6747 73.588 52.4176 73.5833 50.7415C73.5833 49.6383 73.4696 48.7197 73.2424 47.9858C73.0198 47.2519 72.7026 46.7003 72.2907 46.331C71.8835 45.9616 71.4029 45.777 70.8489 45.777C70.0203 45.777 69.3574 46.1913 68.8603 47.0199C68.3631 47.8485 68.1122 49.089 68.1074 50.7415C68.1074 51.8589 68.2187 52.7917 68.4412 53.5398C68.6685 54.2831 68.9881 54.8419 69.4 55.2159C69.812 55.5852 70.2949 55.7699 70.8489 55.7699ZM86.877 55.2727V54.5057C86.877 53.9233 87.0001 53.3883 87.2463 52.9006C87.4972 52.4081 87.8594 52.0152 88.3329 51.7216C88.8111 51.4233 89.3935 51.2741 90.0801 51.2741C90.7761 51.2741 91.3609 51.4209 91.8343 51.7145C92.3126 52.008 92.6724 52.401 92.9139 52.8935C93.1601 53.3812 93.2832 53.9186 93.2832 54.5057V55.2727C93.2832 55.8551 93.1601 56.3925 92.9139 56.8849C92.6677 57.3726 92.3055 57.7633 91.8272 58.0568C91.349 58.3551 90.7666 58.5043 90.0801 58.5043C89.3841 58.5043 88.7993 58.3551 88.3258 58.0568C87.8523 57.7633 87.4925 57.3726 87.2463 56.8849C87.0001 56.3925 86.877 55.8551 86.877 55.2727ZM88.9437 54.5057V55.2727C88.9437 55.6089 89.0242 55.9261 89.1852 56.2244C89.3509 56.5227 89.6492 56.6719 90.0801 56.6719C90.5109 56.6719 90.8045 56.5251 90.9608 56.2315C91.1217 55.938 91.2022 55.6184 91.2022 55.2727V54.5057C91.2022 54.16 91.1265 53.8381 90.975 53.5398C90.8234 53.2415 90.5252 53.0923 90.0801 53.0923C89.6539 53.0923 89.358 53.2415 89.1923 53.5398C89.0266 53.8381 88.9437 54.16 88.9437 54.5057ZM79.4125 46.9489V46.1818C79.4125 45.5947 79.5379 45.0573 79.7889 44.5696C80.0398 44.0772 80.402 43.6842 80.8755 43.3906C81.3538 43.0971 81.9314 42.9503 82.6085 42.9503C83.3092 42.9503 83.8964 43.0971 84.3699 43.3906C84.8433 43.6842 85.2032 44.0772 85.4494 44.5696C85.6956 45.0573 85.8187 45.5947 85.8187 46.1818V46.9489C85.8187 47.536 85.6932 48.0734 85.4423 48.5611C85.1961 49.0488 84.8339 49.4394 84.3556 49.733C83.8822 50.0218 83.2998 50.1662 82.6085 50.1662C81.9172 50.1662 81.3324 50.0194 80.8542 49.7259C80.3807 49.4276 80.0209 49.0369 79.7747 48.554C79.5332 48.0663 79.4125 47.5312 79.4125 46.9489ZM81.4934 46.1818V46.9489C81.4934 47.2945 81.5739 47.6141 81.7349 47.9077C81.9006 48.2012 82.1918 48.348 82.6085 48.348C83.0441 48.348 83.34 48.2012 83.4963 47.9077C83.6573 47.6141 83.7377 47.2945 83.7377 46.9489V46.1818C83.7377 45.8362 83.662 45.5142 83.5105 45.2159C83.359 44.9176 83.0583 44.7685 82.6085 44.7685C82.1871 44.7685 81.8959 44.92 81.7349 45.223C81.5739 45.526 81.4934 45.8456 81.4934 46.1818ZM80.35 58L90.35 43.4545H92.2108L82.2108 58H80.35Z" fill="#1C2024"/>
<path d="M145.223 77.3877C145.809 77.3877 146.389 77.268 146.926 77.0358C147.464 76.8037 147.949 76.464 148.351 76.0377C148.753 75.6114 149.064 75.1075 149.264 74.5568C149.464 74.0061 149.549 73.4204 149.515 72.8355C148.735 59.5957 144.565 46.7787 137.406 35.6141C130.247 24.4496 120.338 15.3124 108.632 9.07922C96.9248 2.84605 83.8126 -0.273866 70.5531 0.018855C57.2936 0.311576 44.3318 4.00711 32.9116 10.7508C32.4071 11.0488 31.9688 11.4466 31.6236 11.9201C31.2785 12.3935 31.0337 12.9325 30.9044 13.5039C30.7751 14.0754 30.7639 14.6672 30.8716 15.2431C30.9793 15.819 31.2035 16.3669 31.5306 16.853L36.3402 24.0011C36.949 24.906 37.879 25.5456 38.9418 25.7905C40.0046 26.0354 41.1207 25.8673 42.0642 25.3201C50.9182 20.1852 60.9355 17.3929 71.1691 17.2072C81.4027 17.0215 91.5147 19.4485 100.549 24.2589C109.584 29.0693 117.242 36.104 122.801 44.6983C128.36 53.2926 131.635 63.1625 132.318 73.375C132.39 74.4632 132.874 75.4831 133.67 76.2282C134.467 76.9732 135.517 77.3877 136.607 77.3877H145.223Z" fill="black"/>
<path d="M31.5307 16.8531C31.2036 16.367 30.7806 15.9529 30.2877 15.6362C29.7948 15.3194 29.2423 15.1068 28.6643 15.0113C28.0862 14.9159 27.4948 14.9395 26.9262 15.0809C26.3576 15.2223 25.8239 15.4784 25.3579 15.8335C16.4925 22.5887 9.19092 31.1793 3.95266 41.0174C-1.2856 50.8556 -4.33692 61.7092 -4.99255 72.8357C-5.02702 73.4205 -4.94158 74.0063 -4.74147 74.5569C-4.54136 75.1076 -4.23082 75.6116 -3.8289 76.0379C-3.42698 76.4642 -2.94216 76.8038 -2.40423 77.036C-1.86629 77.2681 -1.28658 77.3879 -0.700683 77.3879H7.91486C9.0055 77.3879 10.0554 76.9734 10.8519 76.2283C11.6483 75.4833 12.1319 74.4634 12.2046 73.3752C12.7719 64.8846 15.1331 56.6109 19.1323 49.0998C23.1316 41.5886 28.678 35.0109 35.4057 29.8004C36.268 29.1326 36.8442 28.162 37.0178 27.0853C37.1913 26.0085 36.9491 24.9061 36.3402 24.0012L31.5307 16.8531Z" fill="white" fill-opacity="0.3"/>
</svg>
