<svg width="18" height="18" viewBox="0 0 18 18" fill="none" xmlns="http://www.w3.org/2000/svg">
<g clip-path="url(#clip0_1_138)">
<mask id="mask0_1_138" style="mask-type:luminance" maskUnits="userSpaceOnUse" x="0" y="0" width="18" height="18">
<path d="M18 0H0V18H18V0Z" fill="white"/>
</mask>
<g mask="url(#mask0_1_138)">
<path d="M9.02286 18C8.73898 18 8.49903 17.7944 8.43029 17.519C8.21117 16.6413 7.7917 15.7078 7.17188 14.7188C6.4375 13.5312 5.39062 12.4297 4.03125 11.4141C2.84894 10.5205 1.66663 9.91107 0.484324 9.58599C0.204305 9.50904 0 9.26073 0 8.97032C0 8.68559 0.196446 8.44016 0.470226 8.36198C1.62941 8.03102 2.7461 7.49368 3.82031 6.75C5.05469 5.89063 6.08594 4.85937 6.91406 3.65625C7.64666 2.58449 8.14956 1.52449 8.42277 0.476286C8.49434 0.201686 8.73608 0 9.01989 0C9.30681 0 9.55026 0.206152 9.6201 0.484497C9.77778 1.11289 10.0242 1.75608 10.3594 2.41406C10.7813 3.22656 11.3203 4.00781 11.9766 4.75781C12.6484 5.49219 13.3985 6.15625 14.2266 6.75C15.3087 7.51708 16.4088 8.056 17.527 8.36676C17.8013 8.44298 18 8.6872 18 8.97187C18 9.26082 17.7952 9.50706 17.5166 9.58347C16.8079 9.77778 16.0783 10.0912 15.3282 10.5234C14.4219 11.0547 13.5781 11.6875 12.7968 12.4219C12.0156 13.1406 11.375 13.8984 10.875 14.6953C10.254 15.6864 9.83403 16.6271 9.61533 17.5175C9.54747 17.7937 9.30717 18 9.02286 18Z" fill="black"/>
</g>
</g>
<defs>
<clipPath id="clip0_1_138">
<rect width="18" height="18" fill="white"/>
</clipPath>
</defs>
</svg>
