<svg width="1087" height="1068" viewBox="0 0 1087 1068" fill="none" xmlns="http://www.w3.org/2000/svg">
<path d="M1.55019 213.679C2.71323 204.837 4.83872 196.149 7.88858 187.77C29.2606 121.29 65.6602 31.7055 139.014 8.34577C158.042 2.26259 175.101 4.0076 193.177 5.84853L197.784 6.28279C202.255 6.70429 206.726 7.12587 211.365 7.22068C221.181 7.51982 230.951 8.6701 240.568 10.6585C258.601 15.7143 275.98 22.8697 292.349 31.9784C300.633 36.184 308.782 40.3768 316.994 43.8908C321.596 45.8314 326.159 48.1794 330.654 50.521C337.189 54.0516 344.026 56.9885 351.084 59.2963C359.902 61.1499 369.024 61.0035 377.78 58.8676L382.286 58.1965C405.925 55.5024 428.781 48.0591 449.486 36.3115C455.628 32.5251 461.431 28.2138 466.831 23.4258C479.369 12.9636 493.537 1.14829 510.721 0.850301C529.555 1.07939 548.338 2.85002 566.883 6.14454C587.479 9.9968 607.177 17.6606 624.969 28.7437C634.268 35.8629 642.197 44.6172 648.369 54.58C650 56.8571 651.563 59.1278 653.207 61.2691C668.385 82.4546 687.119 100.838 708.575 115.599C728.432 129.637 752.605 136.185 776.822 134.087C783.349 133.682 789.851 132.947 796.304 131.883C812.799 129.465 828.462 127.174 848.434 136.454C867.842 146.785 885.797 159.648 901.831 174.708L908.145 180.235C929.977 199.857 949.634 221.78 966.776 245.626L968.788 248.213C994.123 279.096 1015.87 312.765 1033.62 348.573C1037.36 357.199 1040.39 366.121 1042.66 375.247C1044.29 381.766 1046.26 388.193 1048.57 394.503C1051.22 401.191 1054.15 407.837 1056.94 414.47C1060.65 422.971 1064.36 431.472 1067.5 440.193L1070.04 447.282C1075 459.032 1078.63 471.297 1080.88 483.852C1081.34 488.055 1081.53 492.283 1081.47 496.51C1081.28 502.064 1081.91 507.615 1083.33 512.987L1083.79 514.606L1083.63 516.304C1082.92 525.474 1083.24 534.695 1084.59 543.792C1086.03 551.447 1085.28 559.352 1082.44 566.604C1081.73 568.386 1081.03 569.964 1080.28 571.4C1078.86 573.966 1077.99 576.799 1077.72 579.72V579.72C1077.15 585.188 1075.72 590.531 1073.5 595.555C1072.61 597.664 1071.72 599.908 1070.84 602.702C1070.19 605.789 1070.51 608.999 1071.75 611.898C1072.84 615.204 1073.55 618.627 1073.86 622.097C1074.04 625.81 1073.87 629.532 1073.36 633.215C1072.84 635.898 1072.58 638.627 1072.59 641.362C1073.98 656.276 1076.21 671.1 1079.28 685.76C1081.78 699.078 1084.31 712.81 1085.68 726.638C1086.77 742.445 1086.16 758.323 1083.88 774.003L1083.59 777.058C1081.63 791.707 1076.28 805.698 1067.98 817.916L1063.08 826.359C1060.45 831.111 1058.15 835.894 1055.85 840.746C1052.8 847.448 1049.4 853.987 1045.67 860.334C1034.77 877.092 1020.95 891.752 1004.88 903.614C999.408 908.029 994.524 912.706 989.505 917.37L981.288 925.5C966.692 937.47 948.902 944.869 930.14 946.775C906.205 949.763 882.081 950.947 857.971 950.314C842.255 950.271 826.058 950.251 810.442 951.313C771.868 953.556 733.461 958.101 695.426 964.924C683.805 967.116 671.638 968.572 659.884 969.998C638.776 971.692 617.921 975.745 597.709 982.082C582.734 988.129 568.481 995.838 555.217 1005.06C543.393 1012.99 531.01 1020.04 518.165 1026.16C488.639 1039.2 444.395 1057.56 401.616 1065.45C383.773 1067.95 365.666 1067.9 347.838 1065.31L340.115 1064.58C336.931 1064.28 333.814 1063.99 330.698 1063.7C317.965 1063.29 305.355 1061.06 293.251 1057.08C276.224 1050.87 259.819 1043.06 244.255 1033.77C238.84 1030.31 233.221 1026.83 227.534 1023.35C215.509 1016.06 203.171 1008.45 191.955 1000.55C162.413 979.68 143.191 950.127 124.23 921.422C117.722 911.425 111.153 901.353 104.207 891.657C86.7949 867.549 65.1524 837.563 53.3643 806.726C21.0641 722.309 38.5427 634.777 57.5498 559.307C59.087 553.151 60.9757 546.89 62.7967 540.623C66.7363 528.799 69.6202 516.647 71.4143 504.312C72.1823 496.165 72.9567 487.95 73.7311 479.735L75.4398 461.608L76.2654 452.85C78.034 443.225 78.1541 433.369 76.6206 423.705C74.5109 415.72 71.7972 407.908 68.5028 400.337C65.8947 393.926 63.3477 387.59 61.4107 381.312C54.6602 361.229 46.0557 341.82 35.7084 323.34C29.8681 312.789 24.705 302.302 19.7902 291.359C15.2247 280.091 11.7483 268.41 9.40863 256.476C7.67746 249.463 6.01421 242.457 3.84456 235.745C1.55231 228.631 0.770718 221.115 1.55019 213.679V213.679ZM1066.65 515.936C1065.04 509.564 1064.35 502.995 1064.59 496.426C1064.62 492.843 1064.46 489.26 1064.1 485.695C1062.06 474.474 1058.86 463.497 1054.54 452.944L1051.86 445.842C1048.89 437.479 1045.28 429.331 1041.75 421.121C1038.77 414.333 1035.79 407.477 1033.1 400.511C1030.59 393.692 1028.44 386.745 1026.66 379.697C1024.65 371.449 1021.95 363.383 1018.61 355.582C1001.37 320.964 980.22 288.45 955.566 258.679L953.561 256.024C937.131 233.118 918.287 212.052 897.355 193.19L891.047 187.596C876.133 173.567 859.46 161.542 841.449 151.824C825.991 144.681 813.934 146.422 798.691 148.615C792.175 149.576 785.247 150.567 777.963 150.976C750.128 153.352 722.345 145.886 699.437 129.875C676.195 113.994 655.884 94.1872 639.408 71.3384C637.71 69.0549 636.024 66.6357 634.357 64.0128C629.244 55.7573 622.77 48.4308 615.212 42.3447C599.433 32.6486 582.029 25.9023 563.844 22.4336C546.258 19.3318 528.451 17.6532 510.595 17.414C499.295 17.6501 487.957 26.9925 477.051 36.1016C470.912 41.5879 464.294 46.5117 457.278 50.8135C434.843 63.5016 410.13 71.6234 384.557 74.7122L380.254 75.4026C369.02 78.1005 357.307 78.0764 346.086 75.3324C338.076 72.6534 330.321 69.2633 322.914 65.2026C318.744 63.0287 314.568 60.9227 310.299 59.0818C301.829 55.4066 293.28 51.1077 284.738 46.7407C269.494 38.2714 253.344 31.556 236.593 26.7225C227.947 24.9856 219.168 23.9975 210.352 23.7693C205.61 23.3222 200.835 23.2148 196.161 22.7741L191.486 22.3335C174.482 20.7305 159.781 19.3447 144.158 24.105C78.0513 45.2712 43.9416 130.139 24.0273 192.031C19.2677 206.993 15.6989 218.027 19.7149 230.529C21.9881 237.593 23.7484 245.019 25.5703 252.52C27.8401 263.417 31.0893 274.085 35.2784 284.394C40.0834 295.053 45.4688 305.355 50.7928 315.583C61.6185 334.963 70.6377 355.303 77.7361 376.344C79.5019 382.264 81.8904 388.105 84.2723 394.015C87.9389 402.416 90.9146 411.104 93.1697 419.991C95.2126 431.521 95.2106 443.323 93.1638 454.854C92.8375 458.317 92.5239 461.643 92.1655 465.445L90.6935 481.06C89.9063 489.411 89.1127 497.829 88.3256 506.18C86.3958 519.487 83.3301 532.603 79.1619 545.385C77.3665 551.38 75.571 557.376 74.0466 563.397C55.6892 636.325 38.7019 720.821 69.2438 800.688C80.1949 829.529 101.249 858.501 118.048 881.866C125.185 891.717 131.87 902.004 138.555 912.292C157.122 940.824 174.672 967.821 201.529 986.723C212.27 994.585 224.444 1001.76 236.21 1008.9C242.026 1012.46 247.713 1015.94 253.196 1019.4C267.747 1028.1 283.075 1035.41 298.981 1041.25C309.609 1044.64 320.661 1046.52 331.811 1046.81C335.063 1047.12 338.586 1047.45 341.567 1047.73L349.425 1048.47C365.676 1050.9 382.189 1051 398.471 1048.78C437.423 1040.34 475.31 1027.55 511.424 1010.66C523.53 1004.92 535.191 998.283 546.309 990.799C560.586 980.88 575.949 972.63 592.097 966.211C613.475 959.404 635.554 955.051 657.91 953.236C669.941 951.768 681.282 950.371 692.552 948.282C731.234 941.391 770.285 936.77 809.504 934.444C825.667 933.365 842.271 933.423 858.264 933.424C881.415 933.996 904.576 932.837 927.556 929.955C943.107 928.5 957.908 922.568 970.175 912.877L978.205 905.277C983.46 900.293 988.714 895.309 994.484 890.647C1009.06 879.94 1021.63 866.722 1031.59 851.61C1035.14 845.781 1038.05 839.616 1041.02 833.525C1043.98 827.435 1045.88 823.298 1048.67 818.288C1050.4 815.163 1052.11 812.242 1053.81 809.457C1060.92 799.224 1065.52 787.454 1067.23 775.105L1067.52 772.05C1069.71 757.59 1070.41 742.942 1069.59 728.34C1068.29 715.34 1065.79 701.954 1063.32 688.982C1060.18 673.674 1057.87 658.205 1056.41 642.644C1056.24 638.908 1056.41 635.165 1056.92 631.459C1057.41 628.816 1057.66 626.135 1057.67 623.448C1057.4 621.079 1056.91 618.74 1056.21 616.461C1053.94 610.525 1053.62 604.014 1055.3 597.881C1056.2 594.914 1057.25 591.995 1058.45 589.137C1060.11 585.651 1061.16 581.902 1061.54 578.058V578.058C1061.99 573.161 1063.41 568.404 1065.73 564.069C1066.25 562.954 1066.84 561.776 1067.38 560.389C1069.16 555.954 1069.62 551.094 1068.7 546.403C1067.14 536.267 1066.55 526.006 1066.94 515.757L1066.65 515.936Z" stroke="#E3E3E3" stroke-miterlimit="10"/>
</svg>
