<svg width="208" height="209" viewBox="0 0 208 209" fill="none" xmlns="http://www.w3.org/2000/svg">
<path d="M42.1364 208C41.2653 208 40.3944 208 39.5234 208C23.5549 207.228 10.4897 193.692 5.19108 181.459C1.99745 174.412 0.593135 166.689 1.10217 158.972C1.53767 154.508 2.1667 148.645 3.18288 142.734C4.19906 136.822 7.63469 132.334 10.9494 127.991C12.1107 126.447 13.3689 124.927 14.3367 123.335C14.8448 122.538 15.3529 121.815 15.8368 121.139C17.7937 119.048 18.853 116.277 18.7885 113.418C18.579 111.107 18.1165 108.825 17.4094 106.614C17.0223 105.166 16.6351 103.719 16.3206 102.223C15.9977 100.39 15.8358 98.5336 15.8368 96.6732C15.8319 95.5286 15.7672 94.385 15.6432 93.247C15.5023 92.1748 15.3003 91.1115 15.0383 90.0622C14.5811 88.3013 14.3054 86.4984 14.2157 84.6816C14.0463 78.4083 13.8286 71.0975 16.0545 65.2585C18.6336 58.7196 21.5986 52.3386 24.9339 46.1491C27.6034 41.5646 30.9015 37.3742 34.7328 33.699C35.9183 32.4444 37.1523 31.2863 38.241 29.9592C47.5076 19.5118 60.9841 14.6862 72.8637 10.4155C83.4761 6.54856 94.5151 3.96449 105.744 2.71865L110.898 2.0913C114.689 1.51972 118.51 1.17329 122.342 1.05381C122.872 0.981983 123.409 0.981983 123.939 1.05381H126.068V1.63286C126.29 1.70388 126.516 1.76032 126.745 1.80177C128.42 1.70345 130.091 2.05335 131.584 2.81518C134.889 4.22852 138.388 5.13943 141.964 5.51751C145.442 5.62913 148.854 6.50227 151.956 8.07508C153.23 8.90588 154.386 9.90415 155.392 11.0428C155.954 11.6644 156.561 12.2449 157.207 12.7801C157.875 13.2892 158.506 13.8456 159.094 14.4448L160.57 15.8443C164.075 18.9552 167.151 22.5171 169.715 26.4365C170.955 28.427 172.321 30.3371 173.804 32.1549C177.068 35.8824 179.538 40.2333 181.063 44.9427C182.935 52.1985 183.814 59.6736 183.676 67.1646V70.1324C183.426 73.2497 183.63 76.3866 184.28 79.4458C185.606 83.4708 187.435 87.3133 189.724 90.8825C191.045 92.9914 192.543 94.985 194.2 96.8421C195.898 98.7686 197.45 100.817 198.846 102.971C204.175 111.198 206.968 120.803 206.878 130.597C206.878 134.265 206.878 137.836 206.878 141.624C206.878 143.023 206.878 144.471 206.878 145.919C207.08 149.135 207.031 152.361 206.733 155.57C206.249 158.428 205.437 161.221 204.314 163.894L203.757 165.462C202.412 170.111 200.381 174.534 197.733 178.588C193.087 184.808 187.523 190.291 181.232 194.85C176.393 198.518 171.191 199.29 165.82 200.11L164.538 200.303C161.718 200.786 158.857 200.988 155.997 200.906C152.658 200.906 149.319 200.327 146.077 199.893L140.198 199.145C136.179 198.827 132.201 198.125 128.318 197.046C126.794 196.587 125.294 196.081 123.794 195.574C119.701 194.011 115.45 192.894 111.116 192.244C104.106 191.475 97.0124 192.165 90.284 194.271C86.0015 195.646 81.7433 197.408 77.6302 199.097C73.0234 201.115 68.3152 202.895 63.5246 204.429C56.6071 206.65 49.4019 207.853 42.1364 208V208ZM123.116 6.72391V7.01344C119.284 7.0955 115.461 7.42596 111.672 8.00269C109.906 8.24397 108.14 8.4611 106.349 8.65412C95.608 9.87382 85.0498 12.3603 74.8961 16.0614C63.1375 20.2597 50.9918 24.6269 42.7172 33.9403C41.5558 35.2432 40.2977 36.5461 39.0879 37.8491C35.6535 41.1388 32.6753 44.8714 30.2326 48.948C27.0127 54.8795 24.1448 60.9944 21.6435 67.2611C19.8289 72.0868 20.0224 78.6737 20.1676 84.006C20.2373 85.5864 20.4725 87.1552 20.8692 88.6869C21.1796 89.9343 21.4139 91.1993 21.5709 92.475C21.7403 93.802 21.7645 95.1049 21.8129 96.4319C21.8066 97.9514 21.928 99.4687 22.1758 100.968C22.4661 102.319 22.829 103.622 23.1919 104.949C23.9992 107.58 24.5184 110.29 24.7404 113.032C24.889 117.193 23.4641 121.258 20.7483 124.42C20.2886 125.048 19.8288 125.723 19.345 126.471C18.232 128.16 16.9255 129.825 15.7157 131.466C12.6914 135.423 9.86063 139.163 9.0864 143.53C8.09442 149.272 7.48956 154.991 7.05405 159.358C6.61559 166.08 7.86287 172.805 10.6833 178.926C15.5222 189.904 27.0146 201.341 39.862 201.944C47.3457 202.167 54.8135 201.131 61.9519 198.88C66.5489 197.48 71.0976 195.574 75.5252 193.74C79.9529 191.907 84.1385 190.169 88.6387 188.722C96.1679 186.343 104.114 185.571 111.962 186.454C116.708 187.152 121.364 188.357 125.85 190.049C127.326 190.531 128.778 191.038 130.254 191.496C133.778 192.445 137.382 193.067 141.02 193.354L147.045 194.102C150.139 194.588 153.256 194.911 156.384 195.067C158.863 195.133 161.343 194.955 163.788 194.537L165.094 194.344C170.127 193.571 174.119 192.968 177.869 190.169C183.66 185.983 188.782 180.948 193.063 175.234C195.308 171.761 197.036 167.982 198.192 164.015L198.918 161.964C199.832 159.703 200.489 157.348 200.878 154.942C201.109 152.011 201.109 149.067 200.878 146.136C200.878 144.616 200.878 143.096 200.878 141.624C200.878 137.908 200.878 134.192 200.878 130.501C200.989 121.837 198.549 113.33 193.862 106.035C192.611 104.118 191.22 102.295 189.7 100.582C187.83 98.4709 186.146 96.2024 184.668 93.802C182.109 89.7989 180.076 85.4849 178.619 80.9659C177.796 77.3516 177.519 73.6352 177.796 69.9393C177.796 68.9742 177.796 68.0332 177.796 67.0922C177.927 60.1384 177.113 53.1989 175.377 46.4628C174.02 42.5062 171.89 38.8569 169.11 35.7258C167.497 33.715 166.003 31.6124 164.634 29.4284C162.34 25.9578 159.589 22.8093 156.457 20.0667L155.053 18.7155C154.609 18.2557 154.132 17.8283 153.626 17.4368C152.762 16.692 151.953 15.8856 151.206 15.024C150.561 14.266 149.821 13.593 149.005 13.0213C146.641 11.9376 144.081 11.3465 141.48 11.2841C137.257 10.8542 133.127 9.77164 129.237 8.07508C128.497 7.67942 127.652 7.51943 126.818 7.61664C125.803 7.57204 124.8 7.37689 123.842 7.03759L123.334 6.86867H123.116V6.72391Z" stroke="#E3E3E3" stroke-miterlimit="10"/>
</svg>
