<svg width="900" height="779" viewBox="0 0 900 779" fill="none" xmlns="http://www.w3.org/2000/svg">
<path d="M846.879 275.617C851.052 280.438 854.686 285.701 857.715 291.311C883.092 334.31 913.679 396.315 891.321 446.613C885.534 459.671 876.498 467.959 866.929 476.745L864.508 479.001C862.159 481.19 859.81 483.379 857.556 485.813C852.734 490.917 847.478 495.592 841.848 499.787C830.58 507.023 818.502 512.912 805.858 517.334C799.676 519.763 793.565 522.127 787.786 524.847C784.563 526.384 781.141 527.707 777.754 528.998C772.764 530.813 767.947 533.072 763.361 535.747C758.181 539.58 753.927 544.524 750.909 550.218L749.127 552.945C739.339 566.858 732.461 582.608 728.904 599.254C728.011 604.334 727.558 609.484 727.552 614.644C727.188 626.314 726.772 639.498 718.77 648.823C709.701 658.78 699.833 667.977 689.264 676.323C677.422 685.5 663.97 692.387 649.596 696.631C641.374 698.219 632.93 698.298 624.673 696.865C622.682 696.655 620.726 696.412 618.801 696.273C600.269 694.322 581.546 695.602 563.466 700.057C546.532 704.001 531.55 713.81 521.169 727.748C518.285 731.429 515.59 735.253 513.093 739.207C506.55 749.171 500.335 758.63 485.889 764.895C471.149 770.36 455.746 773.846 440.082 775.262L434.129 776.011C413.273 778.358 392.219 778.45 371.334 776.285L368.995 776.131C340.456 775.002 312.131 770.634 284.564 763.111C278.177 761.013 271.973 758.391 266.017 755.27C261.759 753.045 257.387 751.046 252.919 749.282C248.086 747.521 243.144 745.929 238.272 744.271C231.967 742.215 225.662 740.16 219.509 737.697L214.512 735.689C205.88 732.755 197.599 728.871 189.82 724.111C187.357 722.358 185.006 720.454 182.778 718.41C179.896 715.675 176.631 713.374 173.087 711.58L172.002 711.058L171.171 710.167C166.609 705.429 161.527 701.222 156.023 697.624C151.252 694.754 147.381 690.601 144.853 685.64C144.24 684.411 143.727 683.29 143.316 682.207C142.62 680.229 141.52 678.417 140.086 676.886C137.436 673.983 135.258 670.683 133.631 667.106C132.923 665.633 132.149 664.088 131.073 662.292C129.731 660.48 127.864 659.125 125.726 658.41C123.44 657.424 121.273 656.178 119.271 654.696C117.204 653.025 115.295 651.168 113.568 649.147C112.384 647.591 111.048 646.157 109.579 644.867C100.95 638.523 91.9683 632.674 82.6772 627.349C74.3702 622.361 65.8282 617.192 57.7915 611.353C48.8261 604.427 40.6265 596.562 33.3329 587.893L31.8369 586.288C24.9389 578.282 20.0006 568.781 17.4147 558.54L15.2285 551.912C13.9407 548.247 12.4751 544.748 10.9761 541.213C8.84379 536.398 6.96435 531.475 5.34547 526.465C1.56575 512.681 0.292751 498.335 1.58733 484.112C1.82767 479.089 1.64786 474.258 1.53932 469.36L1.09738 461.107C1.63352 447.621 6.12898 434.599 14.0228 423.667C23.7942 409.456 34.6204 396.001 46.4105 383.417C53.8986 375.038 61.6027 366.391 68.4522 357.541C85.5758 335.861 101.39 313.177 115.81 289.609C120.158 282.357 125.159 275.163 129.98 268.204C139.101 256.119 146.841 243.048 153.054 229.236C156.936 218.361 159.586 207.082 160.956 195.611C162.338 185.529 164.451 175.561 167.281 165.789C174.337 143.816 185.538 111.448 201.643 84.8409C208.782 74.1164 217.407 64.4618 227.261 56.1658L231.319 52.3841C232.991 50.825 234.629 49.2991 236.266 47.7731C242.532 41.1612 249.711 35.48 257.587 30.9011C268.995 24.7521 280.959 19.6932 293.321 15.7921C297.74 14.5393 302.266 13.1872 306.828 11.8017C316.44 8.84172 326.363 5.85849 335.916 3.62008C361.1 -2.25615 386.024 1.50769 410.371 5.00947C418.805 6.28016 427.308 7.55341 435.789 8.44672C456.943 10.5921 483.248 13.2688 505.328 21.6166C565.785 44.4514 604.262 95.3693 635.567 141.375C638.127 145.121 640.576 149.104 643.06 153.053C647.508 160.776 652.633 168.089 658.373 174.907C662.362 179.187 666.384 183.503 670.407 187.819L679.283 197.342L683.571 201.943C687.875 207.46 693.085 212.206 698.978 215.976C704.248 218.642 709.712 220.902 715.323 222.738C719.987 224.389 724.583 226.037 728.859 227.984C742.798 233.916 757.258 238.536 772.049 241.784C780.462 243.675 788.518 245.896 796.701 248.468C804.892 251.38 812.786 255.071 820.275 259.489C824.845 261.895 829.379 264.334 833.997 266.362C838.887 268.516 843.276 271.668 846.879 275.617ZM179.435 701.265C183.603 703.432 187.443 706.182 190.838 709.432C192.737 711.152 194.73 712.766 196.807 714.266C203.772 718.507 211.16 722.009 218.849 724.715L223.918 726.657C229.798 729.041 235.866 730.984 241.931 732.996C246.975 734.626 252.053 736.292 257.055 738.162C261.893 740.057 266.628 742.207 271.239 744.604C276.602 747.448 282.192 749.841 287.95 751.758C314.637 758.989 342.062 763.129 369.682 764.094L372.053 764.284C392.099 766.383 412.308 766.319 432.331 764.091L438.317 763.377C452.898 762.07 467.244 758.871 480.993 753.862C492.152 748.994 496.949 741.723 503.017 732.535C505.599 728.597 508.36 724.423 511.601 720.336C523.553 704.332 540.739 693.03 560.177 688.393C579.704 683.515 599.937 682.068 619.974 684.116C622.001 684.293 624.094 684.541 626.288 684.896C633.129 686.084 640.119 686.105 646.962 684.956C659.638 681.129 671.511 675.032 682.002 666.962C692.013 659.037 701.368 650.317 709.977 640.888C715.219 634.737 715.611 624.24 715.923 614.085C715.907 608.198 716.419 602.323 717.453 596.53C721.328 578.513 728.726 561.448 739.222 546.314L740.897 543.687C744.791 536.401 750.368 530.153 757.164 525.46C762.401 522.451 767.896 519.917 773.585 517.887C776.727 516.691 779.836 515.46 782.847 514.053C788.835 511.272 795.193 508.745 801.584 506.254C813.351 502.13 824.611 496.689 835.151 490.033C840.186 486.237 844.884 482.015 849.193 477.412C851.685 475.09 854.01 472.589 856.466 470.3L858.922 468.011C867.855 459.685 875.579 452.487 880.455 441.876C900.544 396.493 871.39 337.953 847.772 297.912C842.037 288.262 837.835 281.113 829.246 277.321C824.391 275.181 819.587 272.594 814.713 270.005C807.811 266.042 800.566 262.711 793.067 260.053C785.088 257.558 777.024 255.543 769.029 253.53C753.53 250.11 738.376 245.269 723.759 239.069C719.757 237.201 715.501 235.702 711.211 234.168C704.979 232.137 698.923 229.601 693.102 226.585C685.97 222.2 679.664 216.593 674.473 210.022C672.778 208.203 671.149 206.455 669.287 204.458L661.642 196.254C657.553 191.867 653.431 187.444 649.342 183.057C643.147 175.705 637.593 167.837 632.742 159.538C630.391 155.73 628.039 151.923 625.546 148.249C595.291 103.798 558.202 54.5843 501.012 32.9708C480.397 25.1241 454.913 22.6149 434.447 20.4945C425.793 19.6294 417.119 18.3156 408.446 17.0018C384.379 13.3723 361.614 9.92791 338.756 15.3026C329.452 17.3088 319.836 20.4064 310.432 23.3051C305.766 24.7212 301.205 26.1068 296.75 27.3927C285.193 31.0398 274.003 35.7568 263.325 41.4825C256.465 45.5518 250.215 50.5691 244.759 56.3865C243.051 57.9788 241.2 59.7038 239.634 61.1634L235.505 65.0113C226.49 72.5442 218.591 81.32 212.044 91.0764C198.054 115.902 186.891 142.224 178.765 169.548C176.082 178.744 174.092 188.13 172.811 197.626C171.33 209.968 168.442 222.097 164.202 233.776C157.686 248.434 149.525 262.301 139.876 275.111C134.946 282.238 130.306 288.963 126.069 295.977C111.378 319.924 95.2987 342.988 77.9137 365.053C70.8127 374.204 62.8951 383.049 55.2979 391.596C43.9957 403.697 33.6137 416.625 24.2386 430.275C17.6299 439.277 13.7694 450.005 13.1221 461.164L13.3692 469.065C13.5372 474.241 13.7053 479.416 13.4556 484.714C12.2531 497.591 13.3497 510.583 16.6946 523.086C18.1205 527.755 20.0353 532.236 21.8812 536.714C23.727 541.192 25.0384 544.169 26.3879 548.043C27.2362 550.452 27.9846 552.754 28.6666 554.984C30.758 563.645 34.8639 571.693 40.6498 578.474L42.1457 580.079C48.8321 588.119 56.3307 595.448 64.5221 601.947C72.0887 607.425 80.4288 612.449 88.534 617.292C98.2074 622.884 107.57 628.999 116.58 635.609C118.658 637.292 120.578 639.161 122.316 641.193C123.497 642.709 124.81 644.118 126.239 645.402C127.635 646.382 129.117 647.232 130.667 647.94C134.92 649.544 138.552 652.465 141.031 656.277C142.19 658.166 143.25 660.114 144.208 662.113C145.282 664.657 146.788 666.998 148.659 669.029C151.065 671.593 152.931 674.614 154.145 677.913C154.497 678.718 154.846 679.592 155.331 680.54C156.853 683.601 159.232 686.154 162.179 687.888C168.333 691.872 174.097 696.431 179.392 701.504L179.435 701.265Z" stroke="#E3E3E3" stroke-miterlimit="10"/>
</svg>
