<svg width="478" height="537" viewBox="0 0 478 537" fill="none" xmlns="http://www.w3.org/2000/svg">
<path d="M110.339 51.025C112.691 47.8947 115.378 45.0313 118.352 42.4858C140.87 21.6799 174.125 -4.71403 207.27 2.20787C215.873 3.99432 222.034 8.34923 228.565 12.9605L230.236 14.1224C231.859 15.2501 233.482 16.3779 235.239 17.4168C238.936 19.6529 242.432 22.2049 245.689 25.0441C251.51 30.8756 256.628 37.3688 260.938 44.3909C263.206 47.79 265.425 51.1549 267.815 54.274C269.16 56.0109 270.403 57.8953 271.621 59.7625C273.364 62.5253 275.351 65.1264 277.558 67.5346C280.538 70.1498 284.065 72.0655 287.881 73.1414L289.753 73.8587C299.392 77.9381 309.755 80.0317 320.222 80.0145C323.391 79.8938 326.544 79.4994 329.646 78.8355C336.705 77.5442 344.681 76.088 351.33 79.6885C358.498 83.8472 365.315 88.5846 371.712 93.8532C378.774 99.7785 384.671 106.967 389.101 115.052C391.13 119.785 392.282 124.847 392.5 129.991C392.634 131.215 392.744 132.421 392.912 133.595C394.163 144.979 397.38 156.059 402.421 166.342C407.005 176.004 414.858 183.733 424.59 188.165C427.179 189.421 429.829 190.546 432.531 191.533C439.373 194.174 445.869 196.684 451.523 204.55C456.734 212.697 460.843 221.497 463.742 230.723L464.97 234.201C469.107 246.425 471.916 259.059 473.346 271.884L473.559 273.308C476.612 290.596 477.691 308.175 476.776 325.706C476.351 329.814 475.586 333.88 474.49 337.861C473.71 340.707 473.081 343.591 472.605 346.503C472.179 349.634 471.868 352.808 471.509 355.949C471.099 360.002 470.688 364.055 470.013 368.069L469.46 371.331C468.825 376.895 467.575 382.372 465.732 387.66C465 389.366 464.164 391.025 463.227 392.627C461.961 394.712 461.005 396.971 460.391 399.332L460.219 400.051L459.792 400.666C457.542 404.019 455.678 407.615 454.237 411.387C453.136 414.624 451.147 417.486 448.496 419.647C447.838 420.174 447.232 420.627 446.635 421.014C445.537 421.688 444.592 422.583 443.86 423.642V423.642C442.462 425.609 440.764 427.345 438.828 428.785C438.035 429.401 437.208 430.066 436.27 430.944C435.356 431.985 434.786 433.281 434.637 434.658C434.343 436.159 433.877 437.621 433.249 439.016C432.515 440.474 431.649 441.861 430.661 443.159C429.88 444.072 429.194 445.06 428.611 446.109C425.927 452.113 423.587 458.264 421.603 464.534C419.692 470.169 417.703 475.968 415.245 481.551C412.256 487.832 408.603 493.775 404.348 499.277L403.579 500.383C399.671 505.562 394.608 509.758 388.792 512.636L385.096 514.807C383.062 516.054 381.152 517.387 379.224 518.745C376.609 520.649 373.897 522.415 371.099 524.035C363.311 528.089 354.858 530.71 346.143 531.772C343.093 532.278 340.214 533.011 337.285 533.71L332.384 535.043C324.211 536.466 315.799 535.45 308.198 532.123C298.382 528.093 288.882 523.331 279.779 517.877C273.766 514.464 267.563 510.955 261.35 507.986C246.085 500.505 230.387 493.942 214.34 488.329C209.415 486.656 204.438 484.583 199.627 482.587C191.172 478.672 182.307 475.715 173.196 473.77C166.154 472.845 159.03 472.712 151.959 473.374C145.72 473.849 139.455 473.869 133.213 473.433C119.089 472.038 98.1758 469.498 80.083 463.267C72.7059 460.367 65.7771 456.435 59.504 451.589L56.7012 449.642C55.5457 448.838 54.4147 448.052 53.2838 447.266C48.4918 444.358 44.1395 440.781 40.3585 436.643C35.1721 430.587 30.5681 424.055 26.6077 417.134C25.2771 414.642 23.8729 412.098 22.4439 409.538C19.4086 404.147 16.3186 398.573 13.7245 393.125C6.90073 378.758 5.90318 363.301 4.82358 348.223C4.48426 342.993 4.13747 337.721 3.56522 332.512C2.08813 319.528 0.256771 303.381 2.38535 289.039C8.20028 249.772 33.7628 220.073 57.3115 195.317C59.2275 193.295 61.3004 191.309 63.3489 189.306C67.407 185.635 71.131 181.611 74.4769 177.281C76.527 174.331 78.5943 171.356 80.6615 168.382L85.2229 161.819L87.4267 158.648C90.1788 155.349 92.3489 151.605 93.844 147.578C94.7564 144.068 95.4001 140.493 95.7694 136.886C96.1514 133.87 96.5409 130.896 97.1517 128.076C98.893 118.936 99.7784 109.653 99.796 100.349C99.8317 95.0512 100.113 89.9245 100.588 84.6769C101.267 79.3805 102.452 74.1615 104.128 69.0915C104.975 66.0352 105.848 62.9961 106.463 59.9603C107.118 56.744 108.438 53.7004 110.339 51.025V51.025ZM453.363 396.854C454.12 394.069 455.27 391.407 456.779 388.948C457.564 387.584 458.273 386.179 458.903 384.737C460.54 380.005 461.679 375.114 462.299 370.145L462.803 366.85C463.466 363.009 463.84 359.114 464.256 355.21C464.576 351.969 464.913 348.704 465.383 345.457C465.889 342.306 466.562 339.184 467.398 336.104C468.406 332.515 469.113 328.848 469.512 325.142C470.367 308.176 469.268 291.168 466.237 274.453L466.041 273.004C464.681 260.692 462 248.562 458.043 236.824L456.831 233.321C454.139 224.731 450.342 216.529 445.534 208.918C441.15 202.846 436.154 200.905 429.84 198.449C427.136 197.408 424.267 196.289 421.388 194.871C410.209 189.763 401.171 180.903 395.843 169.827C390.359 158.729 386.844 146.764 385.454 134.464C385.295 133.223 385.171 131.934 385.097 130.57C384.917 126.308 384.015 122.106 382.43 118.145C378.473 111.026 373.257 104.683 367.036 99.4261C360.966 94.4384 354.503 89.9473 347.712 85.9961C343.331 83.6439 336.973 84.7661 330.83 85.8925C327.295 86.6638 323.698 87.1165 320.082 87.2451C308.75 87.2483 297.529 85.0125 287.064 80.6661L285.266 80.0001C280.379 78.6036 275.896 76.0625 272.187 72.5875C269.695 69.8316 267.454 66.8587 265.49 63.7044C264.361 61.9717 263.215 60.2636 261.975 58.6368C259.521 55.4002 257.172 51.9082 254.839 48.3916C250.823 41.8574 246.081 35.798 240.704 30.3287C237.765 27.7955 234.613 25.5198 231.284 23.527C229.563 22.3309 227.757 21.2578 226.06 20.0788L224.364 18.8998C218.193 14.6111 212.858 10.9033 205.845 9.34708C175.95 3.15266 144.588 28.238 123.619 47.604C118.57 52.2977 114.824 55.7461 113.669 61.3957C113.018 64.5886 112.092 67.8094 111.174 71.0719C109.695 75.7301 108.641 80.5127 108.024 85.3611C107.569 90.4761 107.412 95.5804 107.248 100.643C107.22 110.395 106.293 120.124 104.479 129.705C103.879 132.351 103.536 135.101 103.175 137.876C102.769 141.882 102.038 145.848 100.986 149.734C99.2843 154.586 96.7401 159.099 93.4706 163.067C92.5993 164.32 91.7622 165.525 90.8055 166.902L86.8762 172.555C84.7748 175.579 82.6564 178.627 80.555 181.651C76.9478 186.323 72.9461 190.677 68.5941 194.664C66.614 196.569 64.6339 198.474 62.7521 200.447C40.0001 224.371 15.2801 253.015 9.77178 290.163C7.75278 303.56 9.5774 319.192 10.9795 331.759C11.5913 337.069 11.9361 342.449 12.2809 347.828C13.2471 362.754 14.1542 376.873 20.3725 389.907C22.7944 395.236 25.9131 400.611 28.8843 405.884C30.3453 408.504 31.7743 411.064 33.1295 413.574C36.832 420.044 41.1294 426.155 45.9659 431.827C49.3079 435.421 53.1398 438.526 57.3486 441.051C58.5287 441.871 59.8071 442.759 60.8889 443.511L63.7408 445.493C69.4457 449.933 75.7514 453.543 82.4696 456.213C99.2156 461.404 116.49 464.703 133.97 466.049C139.847 466.471 145.746 466.452 151.62 465.993C159.229 465.285 166.894 465.451 174.466 466.486C184.125 468.504 193.524 471.612 202.483 475.75C207.41 477.789 212.057 479.706 216.826 481.344C233.135 487.069 249.095 493.743 264.626 501.331C271.053 504.412 277.403 508.023 283.532 511.481C292.28 516.704 301.406 521.267 310.833 525.132C317.106 527.937 324.056 528.868 330.846 527.813L335.561 526.642C338.649 525.872 341.737 525.101 344.953 524.566C352.847 523.622 360.51 521.282 367.584 517.656C370.204 516.195 372.645 514.465 375.095 512.777C377.544 511.089 379.161 509.916 381.313 508.604C382.649 507.783 383.934 507.036 385.185 506.338C390.115 503.961 394.414 500.454 397.732 496.101L398.501 494.995C402.457 489.938 405.88 484.486 408.714 478.725C411.016 473.472 412.944 467.812 414.794 462.317C416.889 455.783 419.339 449.369 422.133 443.102C422.872 441.636 423.744 440.241 424.738 438.934C425.494 438.028 426.169 437.057 426.754 436.033C427.16 435.068 427.477 434.068 427.7 433.045C428.107 430.283 429.387 427.724 431.354 425.741C432.337 424.801 433.369 423.912 434.445 423.078C435.833 422.104 437.042 420.896 438.018 419.509V419.509C439.244 417.733 440.815 416.221 442.638 415.065C443.076 414.75 443.556 414.427 444.062 414.013C445.702 412.703 446.925 410.943 447.581 408.949C449.171 404.737 451.157 400.685 453.512 396.848L453.363 396.854Z" stroke="#E3E3E3" stroke-miterlimit="10"/>
</svg>
